<svg version="1.1" xmlns="http://www.w3.org/2000/svg" viewBox="0 0 1929.3530852587164 1034.578488466641" >
  <!-- svg-source:excalidraw -->
  <!-- payload-type:application/vnd.excalidraw+json --><!-- payload-version:2 -->
  <defs>
    <style class="style-fonts">
      @font-face {
        font-family: "Virgil";
        src: url("https://files.hellointerview.com/build-assets/PRODUCTION/_next/static/media/Excalifont-s.p.436754fa.woff2");
      }
      @font-face {
        font-family: "Cascadia";
        src: url("https://file%2B.vscode-resource.vscode-cdn.net/Users/evanking/.cursor/extensions/pomdtr.excalidraw-editor-3.7.4/public//dist/excalidraw-assets/Cascadia.woff2");
      }
      @font-face {
        font-family: "Assistant";
        src: url("https://file%2B.vscode-resource.vscode-cdn.net/Users/evanking/.cursor/extensions/pomdtr.excalidraw-editor-3.7.4/public//dist/excalidraw-assets/Assistant-Regular.woff2");
      }
    </style>
    
  </defs>
  <rect x="0" y="0" width="1929.3530852587164" height="1034.578488466641" fill="#ffffff"></rect><g stroke-linecap="round" transform="translate(10 420.551324848715) rotate(0 66.41791896430016 54.30053481342259)"><path d="M27.15 0 C55.81 -0.33, 82.7 -0.93, 105.69 0 M27.15 0 C44.19 -1.18, 59.53 -0.9, 105.69 0 M105.69 0 C123.49 0.16, 133.84 9.59, 132.84 27.15 M105.69 0 C125.26 1.43, 132.94 10.79, 132.84 27.15 M132.84 27.15 C132.99 40.25, 131.82 54.4, 132.84 81.45 M132.84 27.15 C131.45 44.89, 132.09 60.84, 132.84 81.45 M132.84 81.45 C131.15 98.73, 122.46 107.26, 105.69 108.6 M132.84 81.45 C134.54 100.04, 125.92 106.63, 105.69 108.6 M105.69 108.6 C87.29 106.98, 69.91 108.84, 27.15 108.6 M105.69 108.6 C89.33 110.25, 71.71 110.33, 27.15 108.6 M27.15 108.6 C8.94 109.12, -1.43 100.04, 0 81.45 M27.15 108.6 C7.54 109.26, -2.1 101.71, 0 81.45 M0 81.45 C1.47 62.65, -1.58 49.27, 0 27.15 M0 81.45 C0.22 64.83, 0.63 49.61, 0 27.15 M0 27.15 C-1.77 8.16, 9.04 0.6, 27.15 0 M0 27.15 C1.65 9.18, 7.42 -1.36, 27.15 0" stroke="#1e1e1e" stroke-width="2" fill="none"></path></g><g transform="translate(51.974559589300156 462.3518596621376) rotate(0 24.443359375 12.5)"><text x="24.443359375" y="0" font-family="Virgil, Segoe UI Emoji" font-size="20px" fill="#1e1e1e" text-anchor="middle" style="white-space: pre;" direction="ltr" dominant-baseline="text-before-edge">Client</text></g><g stroke-linecap="round" transform="translate(403.7906550751385 270.68723162993047) rotate(0 91.13351565247496 195.92611917101357)"><path d="M32 0 C63.14 2.09, 98.54 1.45, 150.27 0 M32 0 C56.79 0.8, 82.38 0.99, 150.27 0 M150.27 0 C172.88 1.24, 182.35 12.18, 182.27 32 M150.27 0 C170.09 1.45, 183.76 10.45, 182.27 32 M182.27 32 C180.86 135.4, 179.68 239.98, 182.27 359.85 M182.27 32 C181.08 162.27, 181.21 292.64, 182.27 359.85 M182.27 359.85 C183.75 381.61, 173.46 390.14, 150.27 391.85 M182.27 359.85 C180.4 382.28, 169.7 390.47, 150.27 391.85 M150.27 391.85 C118.88 393.24, 92.68 393.96, 32 391.85 M150.27 391.85 C104.1 393.27, 57.34 393.26, 32 391.85 M32 391.85 C9.35 392.43, -1.83 383.06, 0 359.85 M32 391.85 C10.88 390.31, -1.89 382.45, 0 359.85 M0 359.85 C2.04 294.96, 2.67 229.26, 0 32 M0 359.85 C-2.7 291.23, -2.1 223.42, 0 32 M0 32 C1.43 10.78, 9.25 -1.19, 32 0 M0 32 C-1.81 12.14, 10.83 -2.02, 32 0" stroke="#1e1e1e" stroke-width="2" fill="none"></path></g><g transform="translate(432.44858479011344 416.61335080094403) rotate(0 62.4755859375 50)"><text x="62.4755859375" y="0" font-family="Virgil, Segoe UI Emoji" font-size="20px" fill="#1e1e1e" text-anchor="middle" style="white-space: pre;" direction="ltr" dominant-baseline="text-before-edge">API Gateway</text><text x="62.4755859375" y="25" font-family="Virgil, Segoe UI Emoji" font-size="20px" fill="#1e1e1e" text-anchor="middle" style="white-space: pre;" direction="ltr" dominant-baseline="text-before-edge">- authentication</text><text x="62.4755859375" y="50" font-family="Virgil, Segoe UI Emoji" font-size="20px" fill="#1e1e1e" text-anchor="middle" style="white-space: pre;" direction="ltr" dominant-baseline="text-before-edge">- rate limiting</text><text x="62.4755859375" y="75" font-family="Virgil, Segoe UI Emoji" font-size="20px" fill="#1e1e1e" text-anchor="middle" style="white-space: pre;" direction="ltr" dominant-baseline="text-before-edge">- routing</text></g><g stroke-linecap="round" transform="translate(810.5894285798223 405.95149460219363) rotate(0 133.45758189228422 69.29831816266892)"><path d="M32 0 C106.26 -2.31, 182.61 -1.03, 234.92 0 M32 0 C95.08 0.07, 157.06 0.19, 234.92 0 M234.92 0 C254.93 1.26, 268.22 10.48, 266.92 32 M234.92 0 C256.69 -1.56, 269.01 10.86, 266.92 32 M266.92 32 C268.3 47.25, 266.69 61.88, 266.92 106.6 M266.92 32 C267.17 51.52, 267.35 69.76, 266.92 106.6 M266.92 106.6 C265.29 128.88, 254.6 137.39, 234.92 138.6 M266.92 106.6 C265.8 126.34, 257.27 136.72, 234.92 138.6 M234.92 138.6 C166.94 140.61, 97.51 139.93, 32 138.6 M234.92 138.6 C168.21 139.3, 101.87 139.88, 32 138.6 M32 138.6 C10.86 137.25, -1.64 129.03, 0 106.6 M32 138.6 C8.37 136.36, 1.64 127.68, 0 106.6 M0 106.6 C-2.1 81.93, -1.1 51.78, 0 32 M0 106.6 C0.72 87.58, -0.7 67.86, 0 32 M0 32 C-1.57 11.94, 10.81 -1.76, 32 0 M0 32 C0.44 12.22, 8.95 2.22, 32 0" stroke="#1e1e1e" stroke-width="2" fill="none"></path></g><g transform="translate(888.2364635971065 462.74981276486255) rotate(0 55.810546875 12.5)"><text x="55.810546875" y="0" font-family="Virgil, Segoe UI Emoji" font-size="20px" fill="#1e1e1e" text-anchor="middle" style="white-space: pre;" direction="ltr" dominant-baseline="text-before-edge">Event Service</text></g><g stroke-linecap="round"><g transform="translate(600.6286979012015 483.7129862216225) rotate(0 98.12245388739251 1.71820194628026)"><path d="M-0.18 0.1 C32.8 0.85, 163.98 3.08, 196.85 3.76 M-1.73 -0.9 C31.24 -0.46, 163.16 1.29, 196.22 1.81" stroke="#1e1e1e" stroke-width="2" fill="none"></path></g><g transform="translate(600.6286979012015 483.7129862216225) rotate(0 98.12245388739251 1.71820194628026)"><path d="M28.2 -9.64 C22.23 -6.59, 16.54 -4.23, -0.18 0.1 M28.2 -9.64 C17.27 -5.27, 8.31 -2.47, -0.18 0.1" stroke="#1e1e1e" stroke-width="2" fill="none"></path></g><g transform="translate(600.6286979012015 483.7129862216225) rotate(0 98.12245388739251 1.71820194628026)"><path d="M27.82 10.88 C22.06 9.54, 16.45 7.51, -0.18 0.1 M27.82 10.88 C17.02 7.82, 8.19 3.19, -0.18 0.1" stroke="#1e1e1e" stroke-width="2" fill="none"></path></g><g transform="translate(600.6286979012015 483.7129862216225) rotate(0 98.12245388739251 1.71820194628026)"><path d="M167.89 11.66 C174.17 10.61, 180.6 8.77, 196.22 1.81 M167.89 11.66 C177.48 8.51, 189.05 4.22, 196.22 1.81" stroke="#1e1e1e" stroke-width="2" fill="none"></path></g><g transform="translate(600.6286979012015 483.7129862216225) rotate(0 98.12245388739251 1.71820194628026)"><path d="M168.18 -8.86 C174.27 -5.53, 180.65 -2.97, 196.22 1.81 M168.18 -8.86 C177.68 -4.58, 189.14 -1.44, 196.22 1.81" stroke="#1e1e1e" stroke-width="2" fill="none"></path></g></g><mask></mask><g stroke-linecap="round" transform="translate(1253.3933741329188 360.2552921459883) rotate(0 112.92030416412285 108.78506994587957)"><path d="M149.31 4.9 C162.12 7.32, 175.14 17.09, 185.48 25.58 C195.82 34.07, 204.92 44.34, 211.34 55.82 C217.77 67.29, 222.1 81.62, 224.04 94.41 C225.98 107.2, 226.09 120.1, 222.99 132.56 C219.89 145.01, 212.96 158.22, 205.46 169.14 C197.95 180.07, 188.98 190.68, 177.94 198.12 C166.9 205.56, 152.67 210.81, 139.21 213.78 C125.75 216.74, 110.79 217.42, 97.17 215.9 C83.56 214.39, 69.33 210.77, 57.54 204.69 C45.74 198.61, 35.17 189.73, 26.43 179.41 C17.69 169.09, 9.39 155.49, 5.08 142.79 C0.77 130.09, -0.05 116.23, 0.58 103.19 C1.22 90.16, 3.64 76.38, 8.91 64.6 C14.18 52.81, 22.64 41.62, 32.19 32.49 C41.75 23.36, 53.55 15.06, 66.25 9.8 C78.95 4.54, 92.66 0.86, 108.4 0.92 C124.13 0.97, 150.34 7.44, 160.65 10.12 C170.96 12.8, 171.14 15.5, 170.25 16.98 M125.4 2.23 C138.62 1.84, 154.46 5.83, 166.46 11.93 C178.47 18.02, 188.85 28.95, 197.42 38.82 C206 48.69, 213.01 58.96, 217.92 71.15 C222.82 83.34, 226.88 98.53, 226.85 111.95 C226.83 125.38, 223.1 139.84, 217.75 151.7 C212.41 163.56, 204.15 173.91, 194.78 183.12 C185.41 192.34, 174.24 201.38, 161.54 206.98 C148.83 212.57, 132.38 215.71, 118.57 216.7 C104.76 217.69, 91.26 216.75, 78.7 212.91 C66.14 209.06, 53.99 202.07, 43.22 193.64 C32.45 185.2, 21.26 173.5, 14.08 162.31 C6.9 151.11, 2.05 139.47, 0.16 126.45 C-1.73 113.44, -0.44 97, 2.72 84.22 C5.87 71.43, 11.76 60.19, 19.06 49.73 C26.37 39.27, 35.26 28.98, 46.54 21.46 C57.82 13.93, 73.5 8.06, 86.73 4.57 C99.97 1.08, 119.24 0.97, 125.95 0.49 C132.67 0.02, 126.88 -0.06, 127.03 1.72" stroke="#1e1e1e" stroke-width="2" fill="none"></path></g><g transform="translate(1310.9152076764426 444.11770144128354) rotate(0 55.5517578125 25)"><text x="55.5517578125" y="0" font-family="Virgil, Segoe UI Emoji" font-size="20px" fill="#1e1e1e" text-anchor="middle" style="white-space: pre;" direction="ltr" dominant-baseline="text-before-edge">Database</text><text x="55.5517578125" y="25" font-family="Virgil, Segoe UI Emoji" font-size="20px" fill="#1e1e1e" text-anchor="middle" style="white-space: pre;" direction="ltr" dominant-baseline="text-before-edge">(PostgreSQL)</text></g><g stroke-linecap="round"><g transform="translate(1086.261187571572 473.76100939328353) rotate(0 75.14656532720915 0.29807728076474405)"><path d="M0.05 0.91 C24.84 1.01, 124.33 1.42, 149.5 1.35 M-1.38 0.34 C23.72 0.03, 126.45 -0.61, 151.8 -0.37" stroke="#1e1e1e" stroke-width="2" fill="none"></path></g><g transform="translate(1086.261187571572 473.76100939328353) rotate(0 75.14656532720915 0.29807728076474405)"><path d="M28.28 -9.25 C19.57 -6.86, 9.04 -0.54, 0.05 0.91 M28.28 -9.25 C21.01 -6.41, 11.02 -4.32, 0.05 0.91" stroke="#1e1e1e" stroke-width="2" fill="none"></path></g><g transform="translate(1086.261187571572 473.76100939328353) rotate(0 75.14656532720915 0.29807728076474405)"><path d="M28.21 11.27 C19.4 6.19, 8.89 5.04, 0.05 0.91 M28.21 11.27 C20.92 8.15, 10.95 4.28, 0.05 0.91" stroke="#1e1e1e" stroke-width="2" fill="none"></path></g><g transform="translate(1086.261187571572 473.76100939328353) rotate(0 75.14656532720915 0.29807728076474405)"><path d="M123.61 9.88 C135.32 4.82, 145.34 3.7, 151.8 -0.37 M123.61 9.88 C132.69 7.18, 139.08 3.34, 151.8 -0.37" stroke="#1e1e1e" stroke-width="2" fill="none"></path></g><g transform="translate(1086.261187571572 473.76100939328353) rotate(0 75.14656532720915 0.29807728076474405)"><path d="M123.61 -10.64 C135.45 -8.23, 145.47 -1.87, 151.8 -0.37 M123.61 -10.64 C132.73 -7.38, 139.12 -5.26, 151.8 -0.37" stroke="#1e1e1e" stroke-width="2" fill="none"></path></g></g><mask></mask><g transform="translate(1507.7598484035097 325.346114519436) rotate(0 65.74993133544928 100)"><text x="0" y="0" font-family="Virgil, Segoe UI Emoji" font-size="20px" fill="#1e1e1e" text-anchor="start" style="white-space: pre;" direction="ltr" dominant-baseline="text-before-edge">Event</text><text x="0" y="25" font-family="Virgil, Segoe UI Emoji" font-size="20px" fill="#1e1e1e" text-anchor="start" style="white-space: pre;" direction="ltr" dominant-baseline="text-before-edge">- id</text><text x="0" y="50" font-family="Virgil, Segoe UI Emoji" font-size="20px" fill="#1e1e1e" text-anchor="start" style="white-space: pre;" direction="ltr" dominant-baseline="text-before-edge">- venueId</text><text x="0" y="75" font-family="Virgil, Segoe UI Emoji" font-size="20px" fill="#1e1e1e" text-anchor="start" style="white-space: pre;" direction="ltr" dominant-baseline="text-before-edge">- performerId</text><text x="0" y="100" font-family="Virgil, Segoe UI Emoji" font-size="20px" fill="#1e1e1e" text-anchor="start" style="white-space: pre;" direction="ltr" dominant-baseline="text-before-edge">- tickets[]</text><text x="0" y="125" font-family="Virgil, Segoe UI Emoji" font-size="20px" fill="#1e1e1e" text-anchor="start" style="white-space: pre;" direction="ltr" dominant-baseline="text-before-edge">- name</text><text x="0" y="150" font-family="Virgil, Segoe UI Emoji" font-size="20px" fill="#1e1e1e" text-anchor="start" style="white-space: pre;" direction="ltr" dominant-baseline="text-before-edge">- description</text><text x="0" y="175" font-family="Virgil, Segoe UI Emoji" font-size="20px" fill="#1e1e1e" text-anchor="start" style="white-space: pre;" direction="ltr" dominant-baseline="text-before-edge">- ....</text></g><g transform="translate(1677.9675656730274 323.52597858607805) rotate(0 51.58995819091797 62.5)"><text x="0" y="0" font-family="Virgil, Segoe UI Emoji" font-size="20px" fill="#1e1e1e" text-anchor="start" style="white-space: pre;" direction="ltr" dominant-baseline="text-before-edge">Venue</text><text x="0" y="25" font-family="Virgil, Segoe UI Emoji" font-size="20px" fill="#1e1e1e" text-anchor="start" style="white-space: pre;" direction="ltr" dominant-baseline="text-before-edge">- id</text><text x="0" y="50" font-family="Virgil, Segoe UI Emoji" font-size="20px" fill="#1e1e1e" text-anchor="start" style="white-space: pre;" direction="ltr" dominant-baseline="text-before-edge">- location</text><text x="0" y="75" font-family="Virgil, Segoe UI Emoji" font-size="20px" fill="#1e1e1e" text-anchor="start" style="white-space: pre;" direction="ltr" dominant-baseline="text-before-edge">- seatMap</text><text x="0" y="100" font-family="Virgil, Segoe UI Emoji" font-size="20px" fill="#1e1e1e" text-anchor="start" style="white-space: pre;" direction="ltr" dominant-baseline="text-before-edge">- ...</text></g><g transform="translate(1824.9931914598883 328.944508991548) rotate(0 47.17994689941406 37.5)"><text x="0" y="0" font-family="Virgil, Segoe UI Emoji" font-size="20px" fill="#1e1e1e" text-anchor="start" style="white-space: pre;" direction="ltr" dominant-baseline="text-before-edge">Performer</text><text x="0" y="25" font-family="Virgil, Segoe UI Emoji" font-size="20px" fill="#1e1e1e" text-anchor="start" style="white-space: pre;" direction="ltr" dominant-baseline="text-before-edge">- id</text><text x="0" y="50" font-family="Virgil, Segoe UI Emoji" font-size="20px" fill="#1e1e1e" text-anchor="start" style="white-space: pre;" direction="ltr" dominant-baseline="text-before-edge">...</text></g><g transform="translate(630.9681120175399 439.5683479413692) rotate(0 64.13993835449219 12.5)"><text x="0" y="0" font-family="Virgil, Segoe UI Emoji" font-size="20px" fill="#1e1e1e" text-anchor="start" style="white-space: pre;" direction="ltr" dominant-baseline="text-before-edge">view(eventId)</text></g><g stroke-linecap="round" transform="translate(804.2500193539822 158.48025562352996) rotate(0 133.45758189228422 69.29831816266892)"><path d="M32 0 C109.97 -0.02, 192.47 1.13, 234.92 0 M32 0 C95.87 0.15, 161.59 0.94, 234.92 0 M234.92 0 C258.11 -1.71, 265.29 11.62, 266.92 32 M234.92 0 C254.35 -1.38, 265.8 9.08, 266.92 32 M266.92 32 C268.22 59.28, 268.1 84.05, 266.92 106.6 M266.92 32 C266.16 61.94, 266.22 91.67, 266.92 106.6 M266.92 106.6 C265.09 129.81, 256.44 137.25, 234.92 138.6 M266.92 106.6 C265.03 129.2, 253.95 136.36, 234.92 138.6 M234.92 138.6 C160.24 140.53, 82.66 141.27, 32 138.6 M234.92 138.6 C182.52 138.06, 130.79 137.84, 32 138.6 M32 138.6 C9.25 137.41, -1.57 129.21, 0 106.6 M32 138.6 C10.83 136.57, 0.44 129.49, 0 106.6 M0 106.6 C0.98 88.7, -1.16 73.7, 0 32 M0 106.6 C-1.58 91.4, -0.92 74.63, 0 32 M0 32 C-0.76 12.09, 9.91 0.26, 32 0 M0 32 C-0.45 11.84, 10.18 -1.23, 32 0" stroke="#1e1e1e" stroke-width="2" fill="none"></path></g><g transform="translate(878.0152184337664 215.27857378619888) rotate(0 59.6923828125 12.5)"><text x="59.6923828125" y="0" font-family="Virgil, Segoe UI Emoji" font-size="20px" fill="#1e1e1e" text-anchor="middle" style="white-space: pre;" direction="ltr" dominant-baseline="text-before-edge">Search Service</text></g><g stroke-linecap="round"><g transform="translate(602.4886481694462 417.33960048614426) rotate(0 90.93538370750376 -87.87295048122769)"><path d="M-0.32 0.21 C30 -29.36, 150.62 -146.78, 180.86 -176.24 M1.71 -0.72 C32.49 -29.62, 152.73 -145.81, 183.04 -174.96" stroke="#1e1e1e" stroke-width="2" fill="none"></path></g><g transform="translate(602.4886481694462 417.33960048614426) rotate(0 90.93538370750376 -87.87295048122769)"><path d="M12.71 -26.81 C10.61 -22.88, 6.7 -16.86, -0.32 0.21 M12.71 -26.81 C10.81 -21.35, 6.03 -13.72, -0.32 0.21" stroke="#1e1e1e" stroke-width="2" fill="none"></path></g><g transform="translate(602.4886481694462 417.33960048614426) rotate(0 90.93538370750376 -87.87295048122769)"><path d="M27.03 -12.11 C21.78 -11.29, 14.88 -8.35, -0.32 0.21 M27.03 -12.11 C21.68 -10.04, 13.58 -5.84, -0.32 0.21" stroke="#1e1e1e" stroke-width="2" fill="none"></path></g><g transform="translate(602.4886481694462 417.33960048614426) rotate(0 90.93538370750376 -87.87295048122769)"><path d="M169.86 -148.01 C172.71 -155.3, 174.29 -160.58, 183.04 -174.96 M169.86 -148.01 C173.66 -155.17, 174.98 -160.11, 183.04 -174.96" stroke="#1e1e1e" stroke-width="2" fill="none"></path></g><g transform="translate(602.4886481694462 417.33960048614426) rotate(0 90.93538370750376 -87.87295048122769)"><path d="M155.62 -162.78 C161.59 -166.95, 166.15 -169.13, 183.04 -174.96 M155.62 -162.78 C162.84 -166.53, 167.48 -168.04, 183.04 -174.96" stroke="#1e1e1e" stroke-width="2" fill="none"></path></g></g><mask></mask><g transform="translate(294.63995908237143 86.86653226167618) rotate(0 468.1796569824219 12.5)"><text x="0" y="0" font-family="Virgil, Segoe UI Emoji" font-size="20px" fill="#1e1e1e" text-anchor="start" style="white-space: pre;" direction="ltr" dominant-baseline="text-before-edge">GET /search?term={term}&amp;location={location}&amp;type={type}&amp;date={date} -&gt; Partial&lt;Event&gt;[]</text></g><g stroke-linecap="round"><g transform="translate(1084.0959118997312 232.5524685955752) rotate(0 94.64702248989141 70.92741489771151)"><path d="M-0.79 -0.81 C31.07 22.96, 158.32 118.51, 190.19 142.11 M0.99 1.38 C32.87 24.81, 158.17 116.75, 189.71 140.12" stroke="#1e1e1e" stroke-width="2" fill="none"></path></g><g transform="translate(1084.0959118997312 232.5524685955752) rotate(0 94.64702248989141 70.92741489771151)"><path d="M27.92 7.88 C20.43 7.3, 16.01 5.8, -0.79 -0.81 M27.92 7.88 C21.01 5.55, 15.2 3.6, -0.79 -0.81" stroke="#1e1e1e" stroke-width="2" fill="none"></path></g><g transform="translate(1084.0959118997312 232.5524685955752) rotate(0 94.64702248989141 70.92741489771151)"><path d="M15.62 24.31 C10.84 20.27, 9.08 15.23, -0.79 -0.81 M15.62 24.31 C11.48 18.4, 8.3 12.93, -0.79 -0.81" stroke="#1e1e1e" stroke-width="2" fill="none"></path></g><g transform="translate(1084.0959118997312 232.5524685955752) rotate(0 94.64702248989141 70.92741489771151)"><path d="M160.92 131.66 C165.75 135.16, 173.72 137.35, 189.71 140.12 M160.92 131.66 C166.2 132.74, 172.71 134.46, 189.71 140.12" stroke="#1e1e1e" stroke-width="2" fill="none"></path></g><g transform="translate(1084.0959118997312 232.5524685955752) rotate(0 94.64702248989141 70.92741489771151)"><path d="M173.1 115.14 C175.23 122.12, 180.58 127.87, 189.71 140.12 M173.1 115.14 C175.63 119.81, 179.53 125.08, 189.71 140.12" stroke="#1e1e1e" stroke-width="2" fill="none"></path></g></g><mask></mask><g stroke-linecap="round" transform="translate(844.8778385054497 686.6002083185449) rotate(0 132.14561200083372 76.0151989733738)"><path d="M32 0 C79.24 0.33, 124.17 -2.8, 232.29 0 M32 0 C101.18 0.46, 171.63 0.35, 232.29 0 M232.29 0 C254.48 1.92, 265.87 12.46, 264.29 32 M232.29 0 C254.37 2.25, 264.17 11.26, 264.29 32 M264.29 32 C265.08 50.31, 266.38 72.46, 264.29 120.03 M264.29 32 C262.57 51.53, 264.28 72.89, 264.29 120.03 M264.29 120.03 C265.4 142.07, 254.66 150.2, 232.29 152.03 M264.29 120.03 C266.43 140.4, 251.59 151.01, 232.29 152.03 M232.29 152.03 C172.44 152.05, 111.33 151.91, 32 152.03 M232.29 152.03 C159.58 151.05, 85.85 151.31, 32 152.03 M32 152.03 C12.5 153.73, -1.09 140.93, 0 120.03 M32 152.03 C11.48 150.1, 2.24 140.72, 0 120.03 M0 120.03 C-0.31 100.4, 0.63 81.53, 0 32 M0 120.03 C-0.04 91.96, -0.42 64.5, 0 32 M0 32 C-1.29 9.98, 10.3 0.76, 32 0 M0 32 C-2.15 9.31, 10.94 2.02, 32 0" stroke="#1e1e1e" stroke-width="2" fill="none"></path></g><g transform="translate(910.0898567562833 750.1154072919187) rotate(0 66.93359375 12.5)"><text x="66.93359375" y="0" font-family="Virgil, Segoe UI Emoji" font-size="20px" fill="#1e1e1e" text-anchor="middle" style="white-space: pre;" direction="ltr" dominant-baseline="text-before-edge">Booking Service</text></g><g stroke-linecap="round"><g transform="translate(1126.5337642367308 744.2838320502997) rotate(0 93.13683258314887 -81.43537361839753)"><path d="M-0.97 0.57 C29.72 -26.52, 154.17 -136.21, 185.28 -163.59 M0.72 -0.18 C31.68 -27.04, 156.83 -135.33, 187.48 -162.43" stroke="#1e1e1e" stroke-width="2" fill="none"></path></g><g transform="translate(1126.5337642367308 744.2838320502997) rotate(0 93.13683258314887 -81.43537361839753)"><path d="M172.99 -136.16 C179.86 -148.01, 183.4 -157.65, 187.48 -162.43 M172.99 -136.16 C176.65 -141.15, 180.35 -147.28, 187.48 -162.43" stroke="#1e1e1e" stroke-width="2" fill="none"></path></g><g transform="translate(1126.5337642367308 744.2838320502997) rotate(0 93.13683258314887 -81.43537361839753)"><path d="M159.49 -151.62 C171.53 -157.29, 180.37 -160.86, 187.48 -162.43 M159.49 -151.62 C166.34 -152.93, 173.16 -155.48, 187.48 -162.43" stroke="#1e1e1e" stroke-width="2" fill="none"></path></g></g><mask></mask><g stroke-linecap="round" transform="translate(848.6307601636086 937.3237602562622) rotate(0 132.68811403083757 43.62736410518937)"><path d="M21.81 0 C69.33 0.74, 117.73 2.35, 243.56 0 M21.81 0 C70.92 -1.06, 118.94 -0.99, 243.56 0 M243.56 0 C258 0.52, 263.95 7.76, 265.38 21.81 M243.56 0 C256.59 0.66, 263.27 9.43, 265.38 21.81 M265.38 21.81 C266.19 33.32, 263.14 50.24, 265.38 65.44 M265.38 21.81 C266.14 33.52, 266.55 46.64, 265.38 65.44 M265.38 65.44 C263.61 79.1, 258.09 87.85, 243.56 87.25 M265.38 65.44 C267.02 80.11, 256.48 85.89, 243.56 87.25 M243.56 87.25 C192.96 87.72, 146.57 86.1, 21.81 87.25 M243.56 87.25 C155.15 88.7, 67.99 88.16, 21.81 87.25 M21.81 87.25 C9.22 86.69, -1.71 81.8, 0 65.44 M21.81 87.25 C6.82 87.81, -0.87 81.62, 0 65.44 M0 65.44 C0.97 53.59, -1.13 41.39, 0 21.81 M0 65.44 C0.1 54.7, -0.65 42.61, 0 21.81 M0 21.81 C0.24 9.03, 5.96 1.51, 21.81 0 M0 21.81 C-2.1 7.79, 7.98 -2.22, 21.81 0" stroke="#1e1e1e" stroke-width="2" fill="none"></path></g><g transform="translate(957.4321554444462 968.4511243614515) rotate(0 23.88671875 12.5)"><text x="23.88671875" y="0" font-family="Virgil, Segoe UI Emoji" font-size="20px" fill="#1e1e1e" text-anchor="middle" style="white-space: pre;" direction="ltr" dominant-baseline="text-before-edge">Stripe</text></g><g stroke-linecap="round"><g transform="translate(929.0793881052931 926.7241052084919) rotate(0 0.39784809959675727 -39.166549586309884)"><path d="M0.53 -0.98 C0.85 -13.71, 1.11 -64.47, 1.31 -77.18 M-0.64 1.12 C-0.39 -11.84, 0.28 -65.34, 0.63 -78.7" stroke="#1e1e1e" stroke-width="2" fill="none"></path></g><g transform="translate(929.0793881052931 926.7241052084919) rotate(0 0.39784809959675727 -39.166549586309884)"><path d="M-9.44 -29.27 C-8.76 -21.34, -2.7 -13.51, 0.53 -0.98 M-9.44 -29.27 C-5.51 -18.08, -2.28 -7.06, 0.53 -0.98" stroke="#1e1e1e" stroke-width="2" fill="none"></path></g><g transform="translate(929.0793881052931 926.7241052084919) rotate(0 0.39784809959675727 -39.166549586309884)"><path d="M11.08 -29.06 C6.6 -21.09, 7.5 -13.31, 0.53 -0.98 M11.08 -29.06 C7.01 -17.75, 2.24 -6.82, 0.53 -0.98" stroke="#1e1e1e" stroke-width="2" fill="none"></path></g></g><mask></mask><g stroke-linecap="round"><g transform="translate(1029.0138699115457 931.694722098784) rotate(0 -0.08720523290409687 -42.49575007812837)"><path d="M0.51 1.15 C0.55 -12.67, 0.82 -69.75, 0.77 -83.91 M-0.67 0.71 C-0.76 -13.34, 0.27 -71.09, 0.32 -85.47" stroke="#1e1e1e" stroke-width="2" fill="none"></path></g><g transform="translate(1029.0138699115457 931.694722098784) rotate(0 -0.08720523290409687 -42.49575007812837)"><path d="M10.26 -57.16 C8.98 -65.29, 5.44 -75.97, 0.32 -85.47 M10.26 -57.16 C5.61 -68.16, 1.71 -79.38, 0.32 -85.47" stroke="#1e1e1e" stroke-width="2" fill="none"></path></g><g transform="translate(1029.0138699115457 931.694722098784) rotate(0 -0.08720523290409687 -42.49575007812837)"><path d="M-10.26 -57.4 C-4.47 -65.54, -0.94 -76.13, 0.32 -85.47 M-10.26 -57.4 C-6.75 -68.35, -2.48 -79.48, 0.32 -85.47" stroke="#1e1e1e" stroke-width="2" fill="none"></path></g></g><mask></mask><g stroke-linecap="round"><g transform="translate(603.3298673074917 601.4363444116916) rotate(0 114.83571058151716 76.17224648972388)"><path d="M0.95 1.08 C39.2 26.47, 191.95 128.26, 230.06 153.52 M-0.02 0.6 C38.07 26.2, 191.18 126.43, 229.32 152.02" stroke="#1e1e1e" stroke-width="2" fill="none"></path></g><g transform="translate(603.3298673074917 601.4363444116916) rotate(0 114.83571058151716 76.17224648972388)"><path d="M30.1 8.16 C21.83 6.61, 12 3.42, 0.95 1.08 M30.1 8.16 C19.99 6.21, 10.24 4.55, 0.95 1.08" stroke="#1e1e1e" stroke-width="2" fill="none"></path></g><g transform="translate(603.3298673074917 601.4363444116916) rotate(0 114.83571058151716 76.17224648972388)"><path d="M18.73 25.24 C14.2 17.75, 8.26 8.7, 0.95 1.08 M18.73 25.24 C12.45 17.7, 6.4 10.48, 0.95 1.08" stroke="#1e1e1e" stroke-width="2" fill="none"></path></g><g transform="translate(603.3298673074917 601.4363444116916) rotate(0 114.83571058151716 76.17224648972388)"><path d="M200.15 145.01 C212.01 147.83, 222.18 149.48, 229.32 152.02 M200.15 145.01 C208.95 147.51, 218.19 150.44, 229.32 152.02" stroke="#1e1e1e" stroke-width="2" fill="none"></path></g><g transform="translate(603.3298673074917 601.4363444116916) rotate(0 114.83571058151716 76.17224648972388)"><path d="M211.47 127.9 C219.62 136.68, 225.9 144.19, 229.32 152.02 M211.47 127.9 C216.46 136, 222.02 144.51, 229.32 152.02" stroke="#1e1e1e" stroke-width="2" fill="none"></path></g></g><mask></mask><g transform="translate(1503.6140522807186 565.799043980538) rotate(0 134.03988647460932 87.5)"><text x="0" y="0" font-family="Virgil, Segoe UI Emoji" font-size="20px" fill="#1e1e1e" text-anchor="start" style="white-space: pre;" direction="ltr" dominant-baseline="text-before-edge">Ticket</text><text x="0" y="25" font-family="Virgil, Segoe UI Emoji" font-size="20px" fill="#1e1e1e" text-anchor="start" style="white-space: pre;" direction="ltr" dominant-baseline="text-before-edge">- id</text><text x="0" y="50" font-family="Virgil, Segoe UI Emoji" font-size="20px" fill="#1e1e1e" text-anchor="start" style="white-space: pre;" direction="ltr" dominant-baseline="text-before-edge">- eventId</text><text x="0" y="75" font-family="Virgil, Segoe UI Emoji" font-size="20px" fill="#1e1e1e" text-anchor="start" style="white-space: pre;" direction="ltr" dominant-baseline="text-before-edge">- seat</text><text x="0" y="100" font-family="Virgil, Segoe UI Emoji" font-size="20px" fill="#1e1e1e" text-anchor="start" style="white-space: pre;" direction="ltr" dominant-baseline="text-before-edge">- price</text><text x="0" y="125" font-family="Virgil, Segoe UI Emoji" font-size="20px" fill="#1e1e1e" text-anchor="start" style="white-space: pre;" direction="ltr" dominant-baseline="text-before-edge">- status: available, booked</text><text x="0" y="150" font-family="Virgil, Segoe UI Emoji" font-size="20px" fill="#1e1e1e" text-anchor="start" style="white-space: pre;" direction="ltr" dominant-baseline="text-before-edge">- userId</text></g><g transform="translate(1803.7958929009046 566.9305892454377) rotate(0 43.38995361328125 50)"><text x="0" y="0" font-family="Virgil, Segoe UI Emoji" font-size="20px" fill="#1e1e1e" text-anchor="start" style="white-space: pre;" direction="ltr" dominant-baseline="text-before-edge">Booking</text><text x="0" y="25" font-family="Virgil, Segoe UI Emoji" font-size="20px" fill="#1e1e1e" text-anchor="start" style="white-space: pre;" direction="ltr" dominant-baseline="text-before-edge">- id</text><text x="0" y="50" font-family="Virgil, Segoe UI Emoji" font-size="20px" fill="#1e1e1e" text-anchor="start" style="white-space: pre;" direction="ltr" dominant-baseline="text-before-edge">- userId</text><text x="0" y="75" font-family="Virgil, Segoe UI Emoji" font-size="20px" fill="#1e1e1e" text-anchor="start" style="white-space: pre;" direction="ltr" dominant-baseline="text-before-edge">- tickets</text></g><g transform="translate(679.3145123166869 604.5940507359792) rotate(0 201.83981323242188 25)"><text x="0" y="0" font-family="Virgil, Segoe UI Emoji" font-size="20px" fill="#1e1e1e" text-anchor="start" style="white-space: pre;" direction="ltr" dominant-baseline="text-before-edge">reserve(ticketId, userId)</text><text x="0" y="25" font-family="Virgil, Segoe UI Emoji" font-size="20px" fill="#1e1e1e" text-anchor="start" style="white-space: pre;" direction="ltr" dominant-baseline="text-before-edge">confirm(ticketId, userId, paymentDetails)</text></g><g stroke-linecap="round" transform="translate(1263.9914621822118 703.5126552699348) rotate(0 62.59547628591781 59.93944973184932)"><path d="M34.3 5.33 C42.09 0.46, 55.15 -1.48, 64.79 -0.98 C74.43 -0.48, 83.8 3.54, 92.16 8.33 C100.51 13.11, 109.4 20.01, 114.92 27.75 C120.44 35.5, 124.48 45.49, 125.27 54.8 C126.05 64.1, 123.41 75.23, 119.6 83.59 C115.8 91.95, 109.79 99.13, 102.44 104.95 C95.1 110.76, 84.88 116.24, 75.53 118.49 C66.18 120.74, 55.59 121.03, 46.32 118.46 C37.06 115.88, 27.16 109.63, 19.93 103.04 C12.69 96.45, 6.01 87.57, 2.91 78.93 C-0.19 70.29, -0.06 60.25, 1.31 51.23 C2.69 42.2, 4.6 32.78, 11.15 24.8 C17.7 16.81, 34.75 6.7, 40.63 3.31 C46.5 -0.08, 46.01 3.49, 46.41 4.46 M57.23 -0.06 C65.99 -1.47, 75.45 1.98, 84.19 5.5 C92.92 9.03, 103.17 14.11, 109.63 21.08 C116.1 28.05, 120.81 38.33, 122.97 47.34 C125.14 56.35, 125.01 66.21, 122.62 75.15 C120.24 84.09, 115.14 94.26, 108.67 100.97 C102.2 107.69, 92.99 112.47, 83.79 115.43 C74.58 118.38, 63.15 119.86, 53.43 118.68 C43.72 117.5, 33.29 113.51, 25.47 108.35 C17.66 103.2, 11.04 96.08, 6.56 87.75 C2.08 79.41, -1.59 67.52, -1.4 58.36 C-1.21 49.2, 3.02 40.62, 7.69 32.79 C12.37 24.95, 18.87 16.7, 26.66 11.35 C34.44 6, 49.46 2.57, 54.41 0.69 C59.36 -1.18, 56.23 -1.06, 56.37 0.1" stroke="#1e1e1e" stroke-width="2" fill="none"></path></g><g transform="translate(1297.3867761522552 726.0685136358034) rotate(0 29.4384765625 37.5)"><text x="29.4384765625" y="0" font-family="Virgil, Segoe UI Emoji" font-size="20px" fill="#1e1e1e" text-anchor="middle" style="white-space: pre;" direction="ltr" dominant-baseline="text-before-edge">Ticket </text><text x="29.4384765625" y="25" font-family="Virgil, Segoe UI Emoji" font-size="20px" fill="#1e1e1e" text-anchor="middle" style="white-space: pre;" direction="ltr" dominant-baseline="text-before-edge">Lock</text><text x="29.4384765625" y="50" font-family="Virgil, Segoe UI Emoji" font-size="20px" fill="#1e1e1e" text-anchor="middle" style="white-space: pre;" direction="ltr" dominant-baseline="text-before-edge">(Redis)</text></g><g stroke-linecap="round"><g transform="translate(1130.654977109454 770.9488252334122) rotate(0 57.51430583474911 0.7548427886058562)"><path d="M0.11 -0.81 C19.3 -0.63, 95.09 1.98, 114.04 2.17 M-1.29 1.39 C18.37 1.72, 96.67 0.45, 116.24 0.4" stroke="#1e1e1e" stroke-width="2" fill="none"></path></g><g transform="translate(1130.654977109454 770.9488252334122) rotate(0 57.51430583474911 0.7548427886058562)"><path d="M28.57 -10.3 C21.38 -9.94, 17.89 -8.31, 0.11 -0.81 M28.57 -10.3 C23.42 -8.05, 17.61 -7.4, 0.11 -0.81" stroke="#1e1e1e" stroke-width="2" fill="none"></path></g><g transform="translate(1130.654977109454 770.9488252334122) rotate(0 57.51430583474911 0.7548427886058562)"><path d="M28.02 10.21 C20.75 6.3, 17.38 3.65, 0.11 -0.81 M28.02 10.21 C22.83 8.3, 17.13 4.79, 0.11 -0.81" stroke="#1e1e1e" stroke-width="2" fill="none"></path></g><g transform="translate(1130.654977109454 770.9488252334122) rotate(0 57.51430583474911 0.7548427886058562)"><path d="M88.15 10.94 C92.57 7.07, 100.87 4.52, 116.24 0.4 M88.15 10.94 C94.33 9.18, 99.99 5.77, 116.24 0.4" stroke="#1e1e1e" stroke-width="2" fill="none"></path></g><g transform="translate(1130.654977109454 770.9488252334122) rotate(0 57.51430583474911 0.7548427886058562)"><path d="M87.95 -9.58 C92.6 -9.17, 100.94 -7.44, 116.24 0.4 M87.95 -9.58 C94.31 -7.17, 100.02 -6.42, 116.24 0.4" stroke="#1e1e1e" stroke-width="2" fill="none"></path></g></g><mask></mask><g transform="translate(1180.2984778594152 838.4890984391113) rotate(0 149.9698944091797 12.5)"><text x="0" y="0" font-family="Virgil, Segoe UI Emoji" font-size="20px" fill="#1e1e1e" text-anchor="start" style="white-space: pre;" direction="ltr" dominant-baseline="text-before-edge">{ticketId: userId} TTL 10 min</text></g><g stroke-linecap="round" transform="translate(1105.4689555807722 333.595374315757) rotate(0 56.58724715460437 49.969668064270536)"><path d="M76.65 3.64 C85.19 5.79, 93.37 12.85, 99.26 19.03 C105.14 25.22, 110.3 32.68, 111.96 40.73 C113.62 48.79, 112.35 59.29, 109.19 67.36 C106.02 75.44, 100.15 83.98, 92.97 89.18 C85.79 94.37, 75.55 97.39, 66.1 98.53 C56.65 99.67, 45.03 98.8, 36.29 96.03 C27.55 93.26, 19.7 88.16, 13.64 81.91 C7.58 75.66, 1.49 66.86, -0.08 58.51 C-1.65 50.17, 0.63 39.51, 4.22 31.82 C7.81 24.14, 14.17 17.68, 21.47 12.4 C28.76 7.12, 38.64 1.56, 47.98 0.16 C57.32 -1.25, 72.53 2.99, 77.51 3.97 C82.5 4.95, 78.23 5.47, 77.87 6.04 M80.78 6.11 C89.15 8.89, 97.57 15.33, 102.9 22.18 C108.23 29.03, 112.03 39.06, 112.74 47.21 C113.45 55.35, 111.38 63.78, 107.15 71.03 C102.92 78.28, 95.3 85.98, 87.38 90.69 C79.46 95.4, 68.92 98.5, 59.62 99.3 C50.31 100.09, 40.1 99.18, 31.55 95.47 C23 91.77, 13.51 83.84, 8.3 77.06 C3.1 70.29, 0.92 62.79, 0.32 54.82 C-0.28 46.85, 0.85 36.89, 4.72 29.24 C8.59 21.59, 15.48 14, 23.53 8.9 C31.59 3.81, 43.62 -0.9, 53.05 -1.32 C62.48 -1.74, 75.55 4.97, 80.12 6.41 C84.69 7.84, 80.55 6.58, 80.48 7.28" stroke="#1e1e1e" stroke-width="2" fill="none"></path></g><g transform="translate(1139.2646562311768 371.23115123814097) rotate(0 22.7783203125 12.5)"><text x="22.7783203125" y="0" font-family="Virgil, Segoe UI Emoji" font-size="20px" fill="#1e1e1e" text-anchor="middle" style="white-space: pre;" direction="ltr" dominant-baseline="text-before-edge">Redis</text></g><g stroke-linecap="round"><g transform="translate(1099.6393377899926 377.3104260778873) rotate(0 -52.62610139680169 8.454302325060326)"><path d="M0.67 0.43 C-10.71 0.72, -49.92 -1.02, -67.39 1.64 C-84.86 4.31, -97.65 13.95, -104.13 16.41 M-0.44 -0.4 C-11.99 0.02, -50.7 -0.37, -68.01 2.6 C-85.32 5.58, -97.88 15.03, -104.31 17.46" stroke="#1e1e1e" stroke-width="2" fill="none"></path></g><g transform="translate(1099.6393377899926 377.3104260778873) rotate(0 -52.62610139680169 8.454302325060326)"><path d="M-18.08 7.18 C-10.41 5.6, -5.98 3.92, 0.67 0.43 M-18.08 7.18 C-13.19 5.81, -7.63 3.83, 0.67 0.43" stroke="#1e1e1e" stroke-width="2" fill="none"></path></g><g transform="translate(1099.6393377899926 377.3104260778873) rotate(0 -52.62610139680169 8.454302325060326)"><path d="M-18.03 -6.45 C-10.39 -2.97, -5.98 0.4, 0.67 0.43 M-18.03 -6.45 C-13.27 -4.3, -7.72 -2.76, 0.67 0.43" stroke="#1e1e1e" stroke-width="2" fill="none"></path></g><g transform="translate(1099.6393377899926 377.3104260778873) rotate(0 -52.62610139680169 8.454302325060326)"><path d="M-90.64 2.97 C-95.02 9.45, -102.63 15.66, -104.31 17.46 M-90.64 2.97 C-94.31 6.95, -97.12 10.45, -104.31 17.46" stroke="#1e1e1e" stroke-width="2" fill="none"></path></g><g transform="translate(1099.6393377899926 377.3104260778873) rotate(0 -52.62610139680169 8.454302325060326)"><path d="M-84.53 15.15 C-91.17 17.15, -101.04 18.83, -104.31 17.46 M-84.53 15.15 C-89.66 15.96, -94.05 16.31, -104.31 17.46" stroke="#1e1e1e" stroke-width="2" fill="none"></path></g></g><mask></mask><g transform="translate(973.9483475786693 337.62785782009996) rotate(0 59.87995910644531 12.5)"><text x="0" y="0" font-family="Virgil, Segoe UI Emoji" font-size="20px" fill="#1e1e1e" text-anchor="start" style="white-space: pre;" direction="ltr" dominant-baseline="text-before-edge">Event cache</text></g><g stroke-linecap="round" transform="translate(589.8148385624021 741.4546670959862) rotate(0 85.59164819917294 33.367475980854465)"><path d="M16.68 0 C64.31 -3.05, 112.73 -1.3, 154.5 0 M16.68 0 C61.44 -0.67, 106.81 0.56, 154.5 0 M154.5 0 C165.76 -1.76, 171.56 6.91, 171.18 16.68 M154.5 0 C163.9 2.22, 173.29 7.52, 171.18 16.68 M171.18 16.68 C169.43 26.81, 170.55 31.34, 171.18 50.05 M171.18 16.68 C170.74 30.43, 170.74 42.88, 171.18 50.05 M171.18 50.05 C170.79 62.2, 165.19 65.67, 154.5 66.73 M171.18 50.05 C169.81 60.14, 164.14 65.94, 154.5 66.73 M154.5 66.73 C114.52 65.69, 78.66 64.14, 16.68 66.73 M154.5 66.73 C103.02 66.08, 50.12 67.96, 16.68 66.73 M16.68 66.73 C5.06 68.53, 1.08 62.68, 0 50.05 M16.68 66.73 C3.65 67.44, -2.3 63.16, 0 50.05 M0 50.05 C-0.83 41.56, 0.19 33.75, 0 16.68 M0 50.05 C0.81 36.62, -0.39 24.4, 0 16.68 M0 16.68 C-0.85 6.26, 5.8 -1.67, 16.68 0 M0 16.68 C0.23 6.83, 3.62 1.37, 16.68 0" stroke="#1e1e1e" stroke-width="2" fill="none"></path></g><g transform="translate(614.307853949075 749.8221430768407) rotate(0 61.0986328125 25)"><text x="61.0986328125" y="0" font-family="Virgil, Segoe UI Emoji" font-size="20px" fill="#1e1e1e" text-anchor="middle" style="white-space: pre;" direction="ltr" dominant-baseline="text-before-edge">virtual waiting </text><text x="61.0986328125" y="25" font-family="Virgil, Segoe UI Emoji" font-size="20px" fill="#1e1e1e" text-anchor="middle" style="white-space: pre;" direction="ltr" dominant-baseline="text-before-edge">queue</text></g><g stroke-linecap="round"><g transform="translate(770.0908357953476 780.072617389962) rotate(0 30.41810512492907 -0.13031178960045509)"><path d="M-0.01 0.36 C10.45 0.41, 51.7 0.03, 61.7 -0.19 M-1.47 -0.5 C9 -0.19, 50.55 1.3, 61.2 1.38" stroke="#1e1e1e" stroke-width="2" fill="none"></path></g><g transform="translate(770.0908357953476 780.072617389962) rotate(0 30.41810512492907 -0.13031178960045509)"><path d="M32.78 10.98 C39.43 10.38, 44.96 5.5, 61.2 1.38 M32.78 10.98 C39.76 7.6, 46.72 6.85, 61.2 1.38" stroke="#1e1e1e" stroke-width="2" fill="none"></path></g><g transform="translate(770.0908357953476 780.072617389962) rotate(0 30.41810512492907 -0.13031178960045509)"><path d="M33.26 -9.54 C39.72 -5.8, 45.14 -6.33, 61.2 1.38 M33.26 -9.54 C39.97 -7.97, 46.81 -3.79, 61.2 1.38" stroke="#1e1e1e" stroke-width="2" fill="none"></path></g></g><mask></mask><g stroke-linecap="round"><g transform="translate(555.2438360776149 674.6035996580613) rotate(0 12.491219607064124 47.049994805847746)"><path d="M0.86 0.07 C4.88 15.57, 20.27 77.59, 24.13 93.39 M-0.15 -0.94 C4.25 14.67, 21.97 78.91, 26.4 94.55" stroke="#1e1e1e" stroke-width="2" fill="none"></path></g><g transform="translate(555.2438360776149 674.6035996580613) rotate(0 12.491219607064124 47.049994805847746)"><path d="M8.94 70.16 C14.35 75.92, 18.28 83.06, 26.4 94.55 M8.94 70.16 C15.5 79.86, 20.92 89.03, 26.4 94.55" stroke="#1e1e1e" stroke-width="2" fill="none"></path></g><g transform="translate(555.2438360776149 674.6035996580613) rotate(0 12.491219607064124 47.049994805847746)"><path d="M28.71 64.64 C28.22 72.2, 26.23 80.99, 26.4 94.55 M28.71 64.64 C28.08 76.18, 26.3 87.36, 26.4 94.55" stroke="#1e1e1e" stroke-width="2" fill="none"></path></g></g><mask></mask><g stroke-linecap="round" transform="translate(1292.6038854463868 10) rotate(0 102.01660310209377 90.50678962103291)"><path d="M62.04 7.1 C72.86 1.48, 89.31 -0.86, 102.63 -0.75 C115.95 -0.63, 129.91 3.34, 141.96 7.78 C154.02 12.23, 165.95 17.86, 174.96 25.92 C183.97 33.98, 191.32 45.25, 196.02 56.17 C200.73 67.09, 203.19 80.08, 203.19 91.42 C203.19 102.76, 200.69 113.76, 196.01 124.23 C191.33 134.71, 184.21 146.02, 175.11 154.27 C166 162.51, 153.41 169.33, 141.36 173.72 C129.31 178.12, 115.83 180.59, 102.8 180.63 C89.76 180.67, 75.23 178.34, 63.17 173.95 C51.11 169.57, 39.76 162.56, 30.44 154.33 C21.12 146.11, 12.4 135.34, 7.26 124.6 C2.11 113.87, -0.47 101.4, -0.45 89.92 C-0.43 78.44, 2.28 66.46, 7.39 55.74 C12.5 45.02, 20.5 33.93, 30.21 25.62 C39.92 17.3, 58.83 9.18, 65.66 5.87 C72.48 2.55, 70.33 4.5, 71.15 5.74 M112.18 1.93 C124.5 2.24, 139.23 7.09, 150.96 12.63 C162.69 18.17, 174.59 26.3, 182.57 35.18 C190.54 44.06, 195.57 54.76, 198.79 65.88 C202.02 77, 203.21 90.37, 201.9 101.9 C200.59 113.43, 196.95 125.26, 190.93 135.07 C184.91 144.88, 175.8 153.65, 165.77 160.76 C155.75 167.87, 143.05 174.23, 130.78 177.74 C118.5 181.26, 105.26 183.4, 92.12 181.85 C78.97 180.3, 63.39 174.34, 51.91 168.45 C40.43 162.56, 31.35 155.17, 23.22 146.52 C15.1 137.87, 7.01 127.46, 3.14 116.53 C-0.73 105.6, -1.62 92.77, 0 80.93 C1.63 69.09, 6.47 55.55, 12.89 45.5 C19.31 35.44, 28.6 27.44, 38.53 20.59 C48.46 13.75, 59.96 7.95, 72.47 4.44 C84.99 0.93, 106.9 -0.14, 113.64 -0.47 C120.39 -0.8, 113.31 0.56, 112.93 2.47" stroke="#1e1e1e" stroke-width="2" fill="none"></path></g><g transform="translate(1341.7348332638735 88.0088249365763) rotate(0 52.7490234375 12.500000000000004)"><text x="52.7490234375" y="0" font-family="Virgil, Segoe UI Emoji" font-size="20px" fill="#1e1e1e" text-anchor="middle" style="white-space: pre;" direction="ltr" dominant-baseline="text-before-edge">Elasticsearch</text></g><g stroke-linecap="round"><g transform="translate(1088.6527265694874 200.04832416243516) rotate(0 100.54996068620676 -34.847141914719884)"><path d="M0.08 -1.06 C33.8 -12.66, 167.98 -57.64, 201.33 -68.88 M-1.33 1 C32.33 -11, 166.51 -58.7, 200.5 -70.58" stroke="#1e1e1e" stroke-width="2" fill="none"></path></g><g transform="translate(1088.6527265694874 200.04832416243516) rotate(0 100.54996068620676 -34.847141914719884)"><path d="M23.52 -19.79 C16.69 -15.25, 14.62 -12.97, 0.08 -1.06 M23.52 -19.79 C13.85 -12.38, 5.46 -5.57, 0.08 -1.06" stroke="#1e1e1e" stroke-width="2" fill="none"></path></g><g transform="translate(1088.6527265694874 200.04832416243516) rotate(0 100.54996068620676 -34.847141914719884)"><path d="M30.08 -0.34 C21.67 -0.1, 18.15 -2.13, 0.08 -1.06 M30.08 -0.34 C17.63 -0.59, 6.64 -1.49, 0.08 -1.06" stroke="#1e1e1e" stroke-width="2" fill="none"></path></g><g transform="translate(1088.6527265694874 200.04832416243516) rotate(0 100.54996068620676 -34.847141914719884)"><path d="M177.33 -51.52 C180.58 -55.37, 188.82 -61.47, 200.5 -70.58 M177.33 -51.52 C185.8 -59.49, 195.89 -67.67, 200.5 -70.58" stroke="#1e1e1e" stroke-width="2" fill="none"></path></g><g transform="translate(1088.6527265694874 200.04832416243516) rotate(0 100.54996068620676 -34.847141914719884)"><path d="M170.5 -70.87 C175.38 -70.45, 185.14 -72.26, 200.5 -70.58 M170.5 -70.87 C181.85 -71.23, 194.65 -71.74, 200.5 -70.58" stroke="#1e1e1e" stroke-width="2" fill="none"></path></g></g><mask></mask><g stroke-linecap="round"><g transform="translate(1399.7533379900588 351.8977835294536) rotate(0 13.664035190272784 -78.77627195810919)"><path d="M0.23 0.81 C4.62 -12.65, 23.25 -55.63, 26.43 -81.85 C29.61 -108.08, 20.78 -143.87, 19.3 -156.53 M-1.11 0.19 C3.65 -13.48, 25.3 -56.94, 28.67 -83.37 C32.04 -109.79, 20.98 -146.09, 19.11 -158.34" stroke="#1e1e1e" stroke-width="2" fill="none"></path></g><g transform="translate(1399.7533379900588 351.8977835294536) rotate(0 13.664035190272784 -78.77627195810919)"><path d="M35.01 -132.89 C31.7 -142.17, 27.4 -146.65, 19.11 -158.34 M35.01 -132.89 C29.38 -143.57, 23.87 -152.81, 19.11 -158.34" stroke="#1e1e1e" stroke-width="2" fill="none"></path></g><g transform="translate(1399.7533379900588 351.8977835294536) rotate(0 13.664035190272784 -78.77627195810919)"><path d="M14.93 -128.63 C17.83 -139.25, 19.69 -145.05, 19.11 -158.34 M14.93 -128.63 C17.06 -140.9, 19.29 -151.79, 19.11 -158.34" stroke="#1e1e1e" stroke-width="2" fill="none"></path></g></g><mask></mask><g transform="translate(1368.2925745858042 251.01670598465353) rotate(0 20.67998504638672 12.5)"><text x="0" y="0" font-family="Virgil, Segoe UI Emoji" font-size="20px" fill="#1e1e1e" text-anchor="start" style="white-space: pre;" direction="ltr" dominant-baseline="text-before-edge">CDC</text></g><g transform="translate(1518.3004026886774 73.51498957127114) rotate(0 157.08987426757818 37.5)"><text x="0" y="0" font-family="Virgil, Segoe UI Emoji" font-size="20px" fill="#1e1e1e" text-anchor="start" style="white-space: pre;" direction="ltr" dominant-baseline="text-before-edge">- index on name, description, </text><text x="0" y="25" font-family="Virgil, Segoe UI Emoji" font-size="20px" fill="#1e1e1e" text-anchor="start" style="white-space: pre;" direction="ltr" dominant-baseline="text-before-edge">    venue, performer, date, etc.</text><text x="0" y="50" font-family="Virgil, Segoe UI Emoji" font-size="20px" fill="#1e1e1e" text-anchor="start" style="white-space: pre;" direction="ltr" dominant-baseline="text-before-edge">- node query caching enabled</text></g><g stroke-linecap="round" transform="translate(226.99519429677775 421.32683822727085) rotate(0 49.79925739479154 53.6953153162155)"><path d="M58.28 -0.02 C66.46 0.52, 76.37 6.6, 82.81 12.45 C89.24 18.3, 94.09 26.69, 96.88 35.07 C99.67 43.46, 101.01 53.93, 99.53 62.77 C98.05 71.61, 93.38 81.24, 88 88.11 C82.62 94.98, 75.15 101.01, 67.23 103.98 C59.31 106.96, 48.83 107.6, 40.5 105.96 C32.17 104.31, 23.56 99.8, 17.25 94.1 C10.93 88.4, 5.3 80.22, 2.62 71.75 C-0.06 63.29, -0.26 52.07, 1.16 43.31 C2.58 34.55, 5.7 26, 11.14 19.2 C16.57 12.41, 25.15 5.62, 33.76 2.54 C42.36 -0.54, 57.51 0.48, 62.77 0.73 C68.02 0.98, 65.79 3.14, 65.3 4.03 M72.55 6.62 C79.8 9.52, 85.67 16.78, 89.91 24.24 C94.15 31.69, 97.28 42.38, 97.99 51.37 C98.69 60.36, 97.5 70.42, 94.12 78.16 C90.73 85.9, 84.42 92.9, 77.67 97.79 C70.93 102.69, 61.7 106.63, 53.64 107.54 C45.59 108.46, 37.02 107.51, 29.35 103.31 C21.69 99.1, 12.38 90.07, 7.66 82.33 C2.94 74.59, 1.63 65.43, 1.06 56.87 C0.49 48.31, 0.85 38.85, 4.24 30.98 C7.63 23.11, 14.35 14.99, 21.41 9.63 C28.48 4.28, 38.21 -0.58, 46.62 -1.13 C55.03 -1.69, 67.98 4.91, 71.88 6.32 C75.78 7.73, 70.38 6.85, 70.03 7.34" stroke="#1e1e1e" stroke-width="2" fill="none"></path></g><g transform="translate(255.46777783965786 462.5538319654405) rotate(0 21.11328125 12.5)"><text x="21.11328125" y="0" font-family="Virgil, Segoe UI Emoji" font-size="20px" fill="#1e1e1e" text-anchor="middle" style="white-space: pre;" direction="ltr" dominant-baseline="text-before-edge">CDN</text></g><g stroke-linecap="round"><g transform="translate(152.44464215817902 478.5719848670087) rotate(0 34.157712467217635 -0.05070650331708748)"><path d="M1.17 -0.34 C12.31 0, 56.14 0.9, 67.29 0.99 M0.32 -1.56 C11.79 -1.45, 58.32 -1.1, 69.46 -0.57" stroke="#1e1e1e" stroke-width="2" fill="none"></path></g><g transform="translate(152.44464215817902 478.5719848670087) rotate(0 34.157712467217635 -0.05070650331708748)"><path d="M29.57 -9.99 C19.4 -8.19, 12.25 -3.63, 1.17 -0.34 M29.57 -9.99 C19.95 -6.53, 10.92 -3.01, 1.17 -0.34" stroke="#1e1e1e" stroke-width="2" fill="none"></path></g><g transform="translate(152.44464215817902 478.5719848670087) rotate(0 34.157712467217635 -0.05070650331708748)"><path d="M29.13 10.53 C19.28 5.45, 12.28 3.12, 1.17 -0.34 M29.13 10.53 C19.72 7.33, 10.84 4.19, 1.17 -0.34" stroke="#1e1e1e" stroke-width="2" fill="none"></path></g><g transform="translate(152.44464215817902 478.5719848670087) rotate(0 34.157712467217635 -0.05070650331708748)"><path d="M41.03 9.01 C50.08 3.81, 61.99 1.91, 69.46 -0.57 M41.03 9.01 C49.9 5.83, 59.31 3.11, 69.46 -0.57" stroke="#1e1e1e" stroke-width="2" fill="none"></path></g><g transform="translate(152.44464215817902 478.5719848670087) rotate(0 34.157712467217635 -0.05070650331708748)"><path d="M41.53 -11.51 C50.24 -9.82, 61.98 -4.83, 69.46 -0.57 M41.53 -11.51 C50.16 -8.03, 59.41 -4.1, 69.46 -0.57" stroke="#1e1e1e" stroke-width="2" fill="none"></path></g></g><mask></mask><g stroke-linecap="round"><g transform="translate(334.97239581877363 480.5706850437564) rotate(0 32.3581249877045 1.9117550775117707)"><path d="M-1.03 1.09 C9.52 1.83, 53.6 3.52, 64.48 4.11 M0.63 0.61 C10.91 1, 52.97 1.78, 63.41 2.15" stroke="#1e1e1e" stroke-width="2" fill="none"></path></g><g transform="translate(334.97239581877363 480.5706850437564) rotate(0 32.3581249877045 1.9117550775117707)"><path d="M27.61 -7.86 C18.02 -4.94, 5.31 -1.75, -1.03 1.09 M27.61 -7.86 C16.75 -3.99, 6.1 -1.71, -1.03 1.09" stroke="#1e1e1e" stroke-width="2" fill="none"></path></g><g transform="translate(334.97239581877363 480.5706850437564) rotate(0 32.3581249877045 1.9117550775117707)"><path d="M26.66 12.64 C17.5 7.42, 5.18 2.46, -1.03 1.09 M26.66 12.64 C16.23 8.9, 5.93 3.56, -1.03 1.09" stroke="#1e1e1e" stroke-width="2" fill="none"></path></g><g transform="translate(334.97239581877363 480.5706850437564) rotate(0 32.3581249877045 1.9117550775117707)"><path d="M34.96 11.68 C48.1 7.74, 58.08 3.59, 63.41 2.15 M34.96 11.68 C45.36 8.61, 55.91 4.03, 63.41 2.15" stroke="#1e1e1e" stroke-width="2" fill="none"></path></g><g transform="translate(334.97239581877363 480.5706850437564) rotate(0 32.3581249877045 1.9117550775117707)"><path d="M35.49 -8.84 C48.36 -4.63, 58.13 -0.63, 63.41 2.15 M35.49 -8.84 C45.62 -4.28, 55.96 -1.25, 63.41 2.15" stroke="#1e1e1e" stroke-width="2" fill="none"></path></g></g><mask></mask></svg>